<svg width="64" height="64" viewBox="0 0 64 64" fill="none" xmlns="http://www.w3.org/2000/svg">
<path fill-rule="evenodd" clip-rule="evenodd" d="M63.9999 10.3078H56.5603L31.4394 29.8459C26.389 33.4153 21.9456 36.8701 18.6865 37.6987C14.2528 38.8261 8.4916 39.4649 0 39.2894C2.55497 39.8656 4.782 40.1333 6.23724 40.3166C13.2008 41.193 18.198 43.5485 22.4187 46.6286C25.1991 48.6577 26.9059 50.4121 28.8814 51.5885C31.0481 52.8784 34.0665 53.7427 36.6465 53.7427C39.2267 53.7427 41.8067 53.417 43.8855 52.8661C41.6312 52.9661 38.7006 52.7908 36.5713 52.3398C34.4421 51.8891 29.9176 50.2845 29.4074 47.6808C28.919 45.1884 35.1619 43.2787 37.6234 42.9215C44.011 41.9945 49.4464 42.2453 51.4254 42.3955C48.7954 41.3685 48.0688 40.116 48.0688 39.0389C48.0688 37.9618 48.8203 36.9349 49.2713 36.1583L64 10.3078L63.9999 10.3078Z" fill="#B92D2F"/>
<path fill-rule="evenodd" clip-rule="evenodd" d="M37.4787 29.6787L37.1497 29.808C37.8184 33.073 38.496 35.4965 39.8564 38.0958C40.3646 39.0671 41.157 40.7268 41.9562 42.4451C42.1813 42.428 42.4037 42.4121 42.6238 42.3976C42.0164 40.5288 41.438 38.6863 41.139 37.5919C40.3656 34.7617 39.2119 32.5254 37.4787 29.6787L37.4787 29.6787ZM21.583 45.1808C21.5519 45.22 21.5271 45.2519 21.5109 45.2737C21.5281 45.2525 21.5528 45.2208 21.583 45.1808ZM34.067 29.393L33.7878 29.1761C31.3222 31.4186 29.5849 33.2388 28.0449 35.7361C26.5948 38.0877 22.3046 44.2275 21.5831 45.1807C22.3279 44.2458 27.2142 38.5688 29.1333 36.5815C31.1716 34.4709 32.505 32.3371 34.067 29.393L34.067 29.393ZM38.2336 29.2021L37.9487 29.4112C39.4302 32.3966 40.7051 34.566 42.6854 36.7312C43.7403 37.8842 45.7116 40.2434 47.3556 42.248C47.509 42.2484 47.6595 42.2494 47.807 42.2507C46.3567 40.0381 44.6078 37.3148 43.7963 35.9157C42.3246 33.3772 40.6375 31.5107 38.2336 29.2021L38.2336 29.2021ZM39.4668 26.8915L39.41 27.2403C42.5586 28.3332 44.9882 28.9884 47.9177 29.1464C49.0668 29.2085 51.0291 29.3891 53.0131 29.5914L53.3315 29.0323C51.312 28.5789 49.2906 28.1041 48.1396 27.7864C45.3113 27.0058 42.7994 26.8553 39.4667 26.8915H39.4668ZM38.8416 28.5481L38.6196 28.8232C40.8156 31.3303 42.603 33.1014 45.0711 34.6878C45.9183 35.2323 47.2617 36.1638 48.6726 37.1633C48.7938 36.9463 48.9206 36.7388 49.0404 36.5427C47.7945 35.4003 46.6335 34.314 45.9366 33.6156C43.8646 31.538 41.756 30.165 38.8416 28.5481L38.8416 28.5481ZM48.056 24.6456C45.1219 24.6145 42.6554 25.1116 39.4427 25.999L39.477 26.3508C42.8003 26.602 45.3166 26.6139 48.1893 26.017C49.8108 25.6804 53.1217 25.1503 55.7707 24.7513L55.9623 24.415C53.2521 24.5379 49.7582 24.6635 48.056 24.6456L48.056 24.6456ZM39.2619 27.7606L39.1179 28.0832C41.8819 29.945 44.0629 31.2 46.8549 32.1021C47.7763 32.4001 49.2328 32.9261 50.7834 33.5045L51.1456 32.8689C49.6567 32.0876 48.2658 31.3392 47.4172 30.8442C44.8827 29.3661 42.4931 28.5779 39.2619 27.7606H39.2619ZM35.3852 29.937C34.3513 33.1053 33.7418 35.5467 33.6385 38.4788C33.5941 39.7376 33.4261 41.9727 33.2416 44.1445C33.4426 44.0645 33.6455 43.9879 33.8487 43.9145C34.2659 41.8786 34.705 39.8366 35.0025 38.6753C35.7301 35.8328 35.8336 33.3187 35.7349 29.9871L35.3852 29.937L35.3852 29.937ZM54.7532 12.21C54.7933 12.1802 54.8253 12.1558 54.8467 12.1388C54.8246 12.1547 54.7926 12.1793 54.7532 12.21ZM33.4019 28.7974L33.1875 28.5164C33.1479 28.537 33.1092 28.5573 33.0699 28.5778L31.4396 29.846C28.9387 31.6136 26.587 33.3525 24.4538 34.7588C21.9356 36.9973 18.0553 40.271 17.2947 40.8664C18.2539 40.1534 24.4299 35.915 26.7934 34.4849C29.3036 32.9658 31.1386 31.244 33.4018 28.7974L33.4019 28.7974ZM17.2947 40.8664C17.2545 40.8965 17.2224 40.9209 17.2013 40.938C17.2232 40.9219 17.2552 40.8974 17.2947 40.8664ZM36.6271 29.9464L36.276 29.9872C36.087 33.3148 36.1222 35.8309 36.7724 38.6918C36.9931 39.6634 37.2952 41.2446 37.5987 42.9253C37.607 42.9241 37.6156 42.9227 37.6236 42.9216C37.8529 42.8884 38.0809 42.8567 38.3075 42.8265C38.2175 41.1268 38.1491 39.5255 38.1411 38.5328C38.1175 35.5987 37.5745 33.1419 36.6271 29.9464V29.9464ZM26.8325 48.2547C26.8123 48.3004 26.7965 48.3377 26.7866 48.363C26.7978 48.3382 26.8135 48.301 26.8325 48.2547ZM34.537 29.6606C32.7271 32.459 31.5133 34.6633 30.6633 37.4714C29.863 40.1157 27.286 47.1485 26.8325 48.2547C27.3134 47.1602 30.5848 40.4223 31.9317 38.0101C33.3624 35.4483 34.1055 33.0444 34.8625 29.7986L34.537 29.6606L34.537 29.6606ZM39.1912 25.0672L39.3141 25.3985C42.5911 24.7911 45.0266 24.1591 47.6514 22.8473C50.1225 21.6123 57.0034 18.6534 58.1188 18.223C56.9929 18.6255 49.8494 20.8771 47.1713 21.5557C44.327 22.276 42.0697 23.3877 39.1912 25.0672L39.1912 25.0672ZM58.1188 18.223C58.1658 18.2062 58.2036 18.1922 58.2289 18.1821C58.2033 18.1909 58.1656 18.205 58.1188 18.223ZM46.0904 19.6874C48.0936 17.7851 53.8116 12.9473 54.7531 12.2101C54.1686 12.6447 51.6492 14.3867 49.2349 16.0055L38.7749 24.1408C38.7316 24.1873 38.6894 24.232 38.6459 24.2792L38.8604 24.5602C41.8176 23.0229 43.9627 21.7077 46.0904 19.6874L46.0904 19.6874Z" fill="#D57634"/>
</svg>
