<svg id="visual" viewBox="0 0 960 155" width="960" height="155"
  xmlns="http://www.w3.org/2000/svg"
  xmlns:xlink="http://www.w3.org/1999/xlink" version="1.1">
  <rect x="0" y="0" width="960" height="155" fill="#001220"></rect>
  <path d="M0 107L13.3 110.2C26.7 113.3 53.3 119.7 80 121.7C106.7 123.7 133.3 121.3 160 115C186.7 108.7 213.3 98.3 240 93C266.7 87.7 293.3 87.3 320 87C346.7 86.7 373.3 86.3 400 85.8C426.7 85.3 453.3 84.7 480 91.2C506.7 97.7 533.3 111.3 560 111.7C586.7 112 613.3 99 640 93.3C666.7 87.7 693.3 89.3 720 90.7C746.7 92 773.3 93 800 94.7C826.7 96.3 853.3 98.7 880 98C906.7 97.3 933.3 93.7 946.7 91.8L960 90L960 0L946.7 0C933.3 0 906.7 0 880 0C853.3 0 826.7 0 800 0C773.3 0 746.7 0 720 0C693.3 0 666.7 0 640 0C613.3 0 586.7 0 560 0C533.3 0 506.7 0 480 0C453.3 0 426.7 0 400 0C373.3 0 346.7 0 320 0C293.3 0 266.7 0 240 0C213.3 0 186.7 0 160 0C133.3 0 106.7 0 80 0C53.3 0 26.7 0 13.3 0L0 0Z" fill="#fa7268"></path>
  <path d="M0 83L13.3 86.3C26.7 89.7 53.3 96.3 80 94.2C106.7 92 133.3 81 160 75.5C186.7 70 213.3 70 240 72.7C266.7 75.3 293.3 80.7 320 85C346.7 89.3 373.3 92.7 400 93.3C426.7 94 453.3 92 480 91.3C506.7 90.7 533.3 91.3 560 91.8C586.7 92.3 613.3 92.7 640 91C666.7 89.3 693.3 85.7 720 83.2C746.7 80.7 773.3 79.3 800 77.8C826.7 76.3 853.3 74.7 880 74C906.7 73.3 933.3 73.7 946.7 73.8L960 74L960 0L946.7 0C933.3 0 906.7 0 880 0C853.3 0 826.7 0 800 0C773.3 0 746.7 0 720 0C693.3 0 666.7 0 640 0C613.3 0 586.7 0 560 0C533.3 0 506.7 0 480 0C453.3 0 426.7 0 400 0C373.3 0 346.7 0 320 0C293.3 0 266.7 0 240 0C213.3 0 186.7 0 160 0C133.3 0 106.7 0 80 0C53.3 0 26.7 0 13.3 0L0 0Z" fill="#ef5f67"></path>
  <path d="M0 58L13.3 58.8C26.7 59.7 53.3 61.3 80 63.8C106.7 66.3 133.3 69.7 160 71.8C186.7 74 213.3 75 240 71C266.7 67 293.3 58 320 53.3C346.7 48.7 373.3 48.3 400 53.3C426.7 58.3 453.3 68.7 480 73.5C506.7 78.3 533.3 77.7 560 74.2C586.7 70.7 613.3 64.3 640 63.5C666.7 62.7 693.3 67.3 720 67.3C746.7 67.3 773.3 62.7 800 58.8C826.7 55 853.3 52 880 54.8C906.7 57.7 933.3 66.3 946.7 70.7L960 75L960 0L946.7 0C933.3 0 906.7 0 880 0C853.3 0 826.7 0 800 0C773.3 0 746.7 0 720 0C693.3 0 666.7 0 640 0C613.3 0 586.7 0 560 0C533.3 0 506.7 0 480 0C453.3 0 426.7 0 400 0C373.3 0 346.7 0 320 0C293.3 0 266.7 0 240 0C213.3 0 186.7 0 160 0C133.3 0 106.7 0 80 0C53.3 0 26.7 0 13.3 0L0 0Z" fill="#e34c67"></path>
  <path d="M0 39L13.3 41.7C26.7 44.3 53.3 49.7 80 52.2C106.7 54.7 133.3 54.3 160 55C186.7 55.7 213.3 57.3 240 54.2C266.7 51 293.3 43 320 42.5C346.7 42 373.3 49 400 50C426.7 51 453.3 46 480 45.2C506.7 44.3 533.3 47.7 560 46.8C586.7 46 613.3 41 640 40C666.7 39 693.3 42 720 44C746.7 46 773.3 47 800 49.7C826.7 52.3 853.3 56.7 880 57.3C906.7 58 933.3 55 946.7 53.5L960 52L960 0L946.7 0C933.3 0 906.7 0 880 0C853.3 0 826.7 0 800 0C773.3 0 746.7 0 720 0C693.3 0 666.7 0 640 0C613.3 0 586.7 0 560 0C533.3 0 506.7 0 480 0C453.3 0 426.7 0 400 0C373.3 0 346.7 0 320 0C293.3 0 266.7 0 240 0C213.3 0 186.7 0 160 0C133.3 0 106.7 0 80 0C53.3 0 26.7 0 13.3 0L0 0Z" fill="#d53867"></path>
  <path d="M0 28L13.3 26C26.7 24 53.3 20 80 18.2C106.7 16.3 133.3 16.7 160 19.8C186.7 23 213.3 29 240 28.2C266.7 27.3 293.3 19.7 320 18.7C346.7 17.7 373.3 23.3 400 24.5C426.7 25.7 453.3 22.3 480 21.5C506.7 20.7 533.3 22.3 560 24.3C586.7 26.3 613.3 28.7 640 30C666.7 31.3 693.3 31.7 720 29.2C746.7 26.7 773.3 21.3 800 19.2C826.7 17 853.3 18 880 21C906.7 24 933.3 29 946.7 31.5L960 34L960 0L946.7 0C933.3 0 906.7 0 880 0C853.3 0 826.7 0 800 0C773.3 0 746.7 0 720 0C693.3 0 666.7 0 640 0C613.3 0 586.7 0 560 0C533.3 0 506.7 0 480 0C453.3 0 426.7 0 400 0C373.3 0 346.7 0 320 0C293.3 0 266.7 0 240 0C213.3 0 186.7 0 160 0C133.3 0 106.7 0 80 0C53.3 0 26.7 0 13.3 0L0 0Z" fill="#c62368"></path>
</svg>