<svg width="158" height="55" viewBox="0 0 158 55" fill="none" xmlns="http://www.w3.org/2000/svg">
<path d="M18.076 21.848C19.312 21.848 20.284 22.232 20.992 23C21.7 23.756 22.054 24.812 22.054 26.168V32H18.994V26.528C18.994 25.892 18.82 25.4 18.472 25.052C18.136 24.692 17.674 24.512 17.086 24.512C16.474 24.512 15.988 24.704 15.628 25.088C15.28 25.46 15.106 25.988 15.106 26.672V32H12.028V26.528C12.028 25.892 11.86 25.4 11.524 25.052C11.188 24.692 10.726 24.512 10.138 24.512C9.526 24.512 9.04 24.698 8.68 25.07C8.32 25.442 8.14 25.976 8.14 26.672V32H5.062V21.956H8.14V23.666C8.404 23.102 8.806 22.658 9.346 22.334C9.898 22.01 10.54 21.848 11.272 21.848C12.04 21.848 12.718 22.028 13.306 22.388C13.894 22.736 14.338 23.24 14.638 23.9C14.986 23.276 15.46 22.778 16.06 22.406C16.672 22.034 17.344 21.848 18.076 21.848ZM27.9151 21.83C28.6831 21.83 29.3431 22.004 29.8951 22.352C30.4471 22.7 30.8551 23.174 31.1191 23.774V21.956H34.1791V32H31.1191V30.182C30.8551 30.782 30.4471 31.256 29.8951 31.604C29.3431 31.952 28.6831 32.126 27.9151 32.126C27.0871 32.126 26.3431 31.922 25.6831 31.514C25.0351 31.094 24.5191 30.494 24.1351 29.714C23.7631 28.934 23.5771 28.022 23.5771 26.978C23.5771 25.922 23.7631 25.01 24.1351 24.242C24.5191 23.462 25.0351 22.868 25.6831 22.46C26.3431 22.04 27.0871 21.83 27.9151 21.83ZM28.9051 24.53C28.2451 24.53 27.7111 24.746 27.3031 25.178C26.9071 25.61 26.7091 26.21 26.7091 26.978C26.7091 27.746 26.9071 28.346 27.3031 28.778C27.7111 29.21 28.2451 29.426 28.9051 29.426C29.5531 29.426 30.0811 29.204 30.4891 28.76C30.9091 28.316 31.1191 27.722 31.1191 26.978C31.1191 26.222 30.9091 25.628 30.4891 25.196C30.0811 24.752 29.5531 24.53 28.9051 24.53ZM42.3823 32L39.3763 27.734V32H36.2983V18.68H39.3763V25.988L42.3823 21.956H46.0003L41.9503 26.978L46.0903 32H42.3823ZM56.7543 26.708C56.7543 26.96 56.7243 27.236 56.6643 27.536H49.6983C49.7343 28.292 49.9263 28.838 50.2743 29.174C50.6223 29.498 51.0663 29.66 51.6063 29.66C52.0623 29.66 52.4403 29.546 52.7403 29.318C53.0403 29.09 53.2383 28.796 53.3343 28.436H56.5923C56.4603 29.144 56.1723 29.78 55.7283 30.344C55.2843 30.896 54.7203 31.334 54.0363 31.658C53.3523 31.97 52.5903 32.126 51.7503 32.126C50.7663 32.126 49.8903 31.922 49.1223 31.514C48.3663 31.094 47.7723 30.494 47.3403 29.714C46.9083 28.934 46.6923 28.022 46.6923 26.978C46.6923 25.922 46.9023 25.01 47.3223 24.242C47.7543 23.462 48.3543 22.868 49.1223 22.46C49.8903 22.04 50.7663 21.83 51.7503 21.83C52.7463 21.83 53.6223 22.034 54.3783 22.442C55.1343 22.85 55.7163 23.426 56.1243 24.17C56.5443 24.902 56.7543 25.748 56.7543 26.708ZM53.6403 26.24C53.6523 25.58 53.4723 25.088 53.1003 24.764C52.7403 24.428 52.2903 24.26 51.7503 24.26C51.1863 24.26 50.7183 24.428 50.3463 24.764C49.9743 25.1 49.7643 25.592 49.7163 26.24H53.6403Z" fill="white"/>
<path d="M118.716 21.83C119.988 21.83 121.002 22.148 121.758 22.784C122.526 23.42 123.006 24.26 123.198 25.304H120.318C120.234 24.896 120.042 24.578 119.742 24.35C119.454 24.11 119.088 23.99 118.644 23.99C118.296 23.99 118.032 24.068 117.852 24.224C117.672 24.368 117.582 24.578 117.582 24.854C117.582 25.166 117.744 25.4 118.068 25.556C118.404 25.712 118.926 25.868 119.634 26.024C120.402 26.204 121.032 26.39 121.524 26.582C122.016 26.762 122.442 27.062 122.802 27.482C123.162 27.902 123.342 28.466 123.342 29.174C123.342 29.75 123.186 30.26 122.874 30.704C122.562 31.148 122.112 31.496 121.524 31.748C120.936 32 120.24 32.126 119.436 32.126C118.08 32.126 116.994 31.826 116.178 31.226C115.362 30.626 114.864 29.768 114.684 28.652H117.654C117.702 29.084 117.882 29.414 118.194 29.642C118.518 29.87 118.932 29.984 119.436 29.984C119.784 29.984 120.048 29.906 120.228 29.75C120.408 29.582 120.498 29.366 120.498 29.102C120.498 28.754 120.33 28.508 119.994 28.364C119.67 28.208 119.136 28.046 118.392 27.878C117.648 27.722 117.036 27.554 116.556 27.374C116.076 27.194 115.662 26.906 115.314 26.51C114.966 26.102 114.792 25.55 114.792 24.854C114.792 23.954 115.134 23.228 115.818 22.676C116.502 22.112 117.468 21.83 118.716 21.83ZM131.13 32L128.124 27.734V32H125.046V18.68H128.124V25.988L131.13 21.956H134.748L130.698 26.978L134.838 32H131.13ZM135.674 19.13C135.674 18.662 135.842 18.278 136.178 17.978C136.514 17.666 136.958 17.51 137.51 17.51C138.062 17.51 138.506 17.666 138.842 17.978C139.178 18.278 139.346 18.662 139.346 19.13C139.346 19.586 139.178 19.97 138.842 20.282C138.506 20.582 138.062 20.732 137.51 20.732C136.958 20.732 136.514 20.582 136.178 20.282C135.842 19.97 135.674 19.586 135.674 19.13ZM139.04 21.956V32H135.962V21.956H139.04ZM147.43 21.83C148.258 21.83 148.996 22.04 149.644 22.46C150.304 22.868 150.82 23.462 151.192 24.242C151.576 25.01 151.768 25.922 151.768 26.978C151.768 28.022 151.576 28.934 151.192 29.714C150.82 30.494 150.304 31.094 149.644 31.514C148.996 31.922 148.258 32.126 147.43 32.126C146.662 32.126 146.002 31.952 145.45 31.604C144.898 31.256 144.496 30.782 144.244 30.182V36.788H141.166V21.956H144.244V23.774C144.496 23.174 144.898 22.7 145.45 22.352C146.002 22.004 146.662 21.83 147.43 21.83ZM146.44 24.53C145.792 24.53 145.258 24.752 144.838 25.196C144.43 25.628 144.226 26.222 144.226 26.978C144.226 27.722 144.43 28.316 144.838 28.76C145.258 29.204 145.792 29.426 146.44 29.426C147.1 29.426 147.628 29.21 148.024 28.778C148.432 28.346 148.636 27.746 148.636 26.978C148.636 26.21 148.432 25.61 148.024 25.178C147.628 24.746 147.1 24.53 146.44 24.53Z" fill="white"/>
<rect x="63" y="2" width="47" height="47" rx="6" fill="url(#paint0_linear_0_1)"/>
<path d="M88.744 21.544C88.744 20.008 88.744 16.024 86.584 16.024C84.664 16.024 80.872 23.32 80.056 24.904C80.056 24.952 79.912 25.192 79.72 25.192C79.624 25.192 79.528 25.096 79.528 24.856C79.528 22.936 79.768 21.064 79.768 19.144C79.768 18.376 79.672 14.632 78.376 14.632C75.832 14.632 72.328 28.312 71.128 31C70.792 31.816 70.744 32.008 70.6 32.008C70.408 32.008 70.408 31.672 70.408 31.624C70.408 27.736 70.984 23.896 70.984 19.96C70.984 19.24 70.84 18.856 70.84 18.664C70.84 18.328 71.368 18.136 71.368 17.512C71.368 16.696 70.504 16.168 69.736 16.168C69.112 16.168 69.064 16.552 68.968 16.936C68.488 18.76 68.008 26.488 68.008 29.704C68.008 30.664 68.056 35.608 70.792 35.608C71.752 35.608 71.944 35.032 72.184 34.072C72.616 32.248 73.384 30.28 74.2 26.968C74.728 24.568 75.784 20.872 76.84 18.52C77.416 17.224 77.512 16.552 77.848 16.552C78.424 16.552 78.328 19 78.328 20.056C78.328 21.592 78.088 23.656 78.088 25.288C78.088 26.68 77.896 29.608 79.384 29.608C80.44 29.608 80.728 27.16 81.016 26.2C81.784 23.944 85.432 17.848 86.248 17.848C86.872 17.848 86.776 19.384 86.776 20.488C86.776 22.696 86.44 25.576 86.44 28.936C86.44 29.944 86.488 35.656 88.504 35.656C88.888 35.656 89.224 35.416 89.224 35.128C89.224 34.648 88.456 34.408 88.264 32.776C87.88 29.032 88.744 25.288 88.744 21.544ZM102.946 25.288C101.89 25.288 100.93 27.016 100.738 27.352C99.3936 29.656 96.8976 33.016 94.7376 33.016C92.1936 33.016 91.7136 29.416 91.7136 27.4C91.7136 25.864 94.0176 26.152 95.6496 25.048C96.8016 24.232 98.0496 22.456 98.5296 20.2C98.6256 19.576 98.8176 19.048 98.8176 18.568C98.8176 17.224 97.4256 15.832 96.1296 15.832C94.2576 15.832 92.4336 18.568 91.5216 20.344C90.4176 22.552 89.6976 25.24 89.6976 27.544C89.6976 30.952 91.2336 35.32 94.4496 35.32C100.354 35.32 100.69 28.648 103.426 26.44C103.618 26.296 103.618 26.056 103.618 25.816C103.618 25.528 103.282 25.288 102.946 25.288ZM96.5136 17.416C97.1856 17.416 97.2816 18.28 97.2816 18.712C97.2816 20.68 95.3616 24.472 92.9616 24.472C92.3856 24.472 92.2416 24.184 92.2416 23.704C92.2416 22.216 94.7856 17.416 96.5136 17.416Z" fill="white"/>
<defs>
<linearGradient id="paint0_linear_0_1" x1="63" y1="2" x2="110" y2="49" gradientUnits="userSpaceOnUse">
<stop stop-color="#FA7268"/>
<stop offset="1" stop-color="#C62368"/>
</linearGradient>
</defs>
</svg>
