<svg width="64" height="64" viewBox="0 0 64 64" fill="none" xmlns="http://www.w3.org/2000/svg">
<rect width="64" height="64" fill="#E5E5E5"/>
<path d="M0 0H64V64H0V0Z" fill="#47143D"/>
<path d="M28.1635 45.5057C28.1361 45.5057 27.8424 45.5938 27.5114 45.7015C27.0766 45.8425 26.8828 45.9189 26.8181 45.9776L26.728 46.0579V52.7301L26.7946 52.9887C27.0257 53.8934 27.5466 54.4672 28.4181 54.7786C29.0154 54.9921 29.7498 55.0704 30.5077 54.9999C30.9386 54.9607 31.2832 54.902 31.7239 54.7923C32.1371 54.6885 32.2389 54.6474 32.2663 54.5612C32.2879 54.4927 32.1214 53.958 32.0529 53.8797C31.9902 53.8073 31.9393 53.8151 31.5535 53.9443C30.9973 54.1323 30.6644 54.1911 30.1709 54.1891C29.836 54.1872 29.6969 54.1735 29.5129 54.1245C29.0272 53.9953 28.704 53.7622 28.5278 53.4117C28.3574 53.0729 28.3555 53.0592 28.3555 50.5975L28.3535 48.3492H31.7885L31.8727 48.2631C31.955 48.1828 31.9589 48.1632 31.9589 47.9262C31.9589 47.7049 31.951 47.6677 31.8884 47.5953L31.8179 47.513L30.0867 47.5052L28.3535 47.4973V45.6506L28.283 45.5781C28.2438 45.539 28.189 45.5057 28.1635 45.5057V45.5057ZM20.8098 47.1233C20.1557 47.1292 19.5192 47.1997 18.967 47.3387C17.9212 47.6031 17.179 48.1789 16.9342 48.9191C16.8715 49.1091 16.8578 49.2129 16.8558 49.4616C16.8539 49.8063 16.893 50.008 17.0184 50.2724C17.2984 50.8697 17.9427 51.2692 18.9631 51.4787C19.3489 51.559 19.6602 51.5904 20.7491 51.6609C21.9398 51.7372 22.355 51.8038 22.7408 51.9801C23.1109 52.1485 23.2558 52.36 23.2774 52.7732C23.297 53.1375 23.2284 53.304 22.9366 53.5958C22.7584 53.774 22.6566 53.8464 22.4353 53.9561C21.1976 54.5652 19.1824 54.3399 17.3885 53.394C17.0869 53.2335 17.0713 53.2295 16.9949 53.2707C16.9126 53.3177 16.6698 53.723 16.6424 53.8621C16.6169 53.9855 16.6796 54.056 16.9244 54.1793C17.6392 54.5397 18.5616 54.8197 19.4311 54.9412C20.0265 55.0254 19.999 55.0254 20.9254 55.0156C21.603 55.0077 21.8536 54.994 22.1611 54.947C23.4752 54.7434 24.3388 54.3204 24.7755 53.6682C24.989 53.349 25.0477 53.1532 25.0654 52.7145C25.0752 52.4305 25.0673 52.3052 25.0301 52.1583C24.8421 51.4376 24.2859 50.9206 23.391 50.6366C22.8877 50.476 22.2433 50.3918 20.8235 50.2978C19.9481 50.241 19.6602 50.2077 19.388 50.1333C18.9866 50.0237 18.7476 49.865 18.6164 49.6242C18.5244 49.4538 18.5283 49.0464 18.6223 48.8095C18.7183 48.5647 18.9513 48.3257 19.2353 48.1769C19.6622 47.9556 20.1205 47.8714 20.8823 47.8714C21.9672 47.8753 22.9719 48.0966 23.8982 48.5412C24.1136 48.645 24.3114 48.7292 24.3388 48.7292C24.4074 48.7292 24.4916 48.6332 24.6306 48.3943C24.7697 48.1554 24.7775 48.079 24.6776 47.985C24.5856 47.9008 24.0157 47.656 23.5927 47.5189C22.7604 47.2526 21.7655 47.1174 20.8098 47.1233V47.1233ZM37.7341 47.2251C37.3679 47.2251 36.9978 47.2369 36.8078 47.2604C36.1537 47.3426 35.437 47.5228 34.8514 47.7519C34.4969 47.891 33.8663 48.1906 33.7998 48.2513C33.7018 48.3395 33.7332 48.4785 33.9427 48.927C34.0211 49.0915 34.0681 49.0836 34.7182 48.7625C36.1557 48.0516 37.4188 47.842 38.5939 48.1182C39.4419 48.3179 39.998 48.7664 40.2135 49.4244C40.2663 49.5889 40.3075 50.6503 40.2605 50.6954C40.2428 50.713 40.1195 50.6973 39.9275 50.6523C38.4255 50.2978 36.9939 50.2234 35.7601 50.433C34.0857 50.7169 33.1887 51.5179 33.1907 52.7262C33.1907 53.3392 33.363 53.772 33.7586 54.1656C34.213 54.6141 34.8181 54.8628 35.7679 54.9862C36.1851 55.041 37.3953 55.0234 37.8203 54.9568C38.6742 54.8237 39.4947 54.526 40.0529 54.1461C40.1449 54.0853 40.233 54.0344 40.2507 54.0344C40.2702 54.0344 40.282 54.1402 40.282 54.3262C40.282 54.8452 40.2957 54.853 41.1163 54.853C41.8095 54.853 41.8683 54.8393 41.9231 54.6552C41.9466 54.5789 41.9525 53.8738 41.9447 52.2464C41.9329 50.0354 41.931 49.9355 41.8722 49.6966C41.7469 49.1855 41.5726 48.8232 41.2788 48.457C40.7716 47.8264 39.8786 47.421 38.6409 47.2604C38.4607 47.2369 38.0984 47.2251 37.7341 47.2251V47.2251ZM58.0269 47.2251C57.6489 47.2271 57.269 47.2447 57.0438 47.2761C56.1351 47.3994 55.2264 47.6873 54.3471 48.1299C54.0435 48.2807 54.0298 48.3336 54.1885 48.7037C54.304 48.974 54.3588 49.0523 54.4372 49.0523C54.4666 49.0523 54.6781 48.9544 54.9092 48.833C56.2937 48.1142 57.5353 47.8675 58.728 48.0731C59.6347 48.2298 60.2751 48.6802 60.5238 49.3343C60.5943 49.5204 60.6002 49.5771 60.612 50.1333L60.6257 50.7306L60.5415 50.713C60.4945 50.7032 60.3104 50.6621 60.1302 50.621C59.7268 50.5289 59.0727 50.4173 58.6399 50.3664C58.1561 50.3096 56.9459 50.3174 56.4504 50.3801C54.774 50.5955 53.7987 51.2418 53.5696 52.2875C53.4991 52.6126 53.5226 53.0787 53.6284 53.4097C53.7165 53.6858 53.926 54.0207 54.1258 54.2048C54.5625 54.6082 55.2636 54.8824 56.1057 54.9862C56.5405 55.0391 57.4511 55.0391 57.9035 54.9862C58.8788 54.8726 59.7326 54.5886 60.3672 54.1676C60.4768 54.0932 60.5806 54.0344 60.5943 54.0344C60.608 54.0344 60.6178 54.1558 60.6178 54.3066C60.6178 54.4574 60.6335 54.6239 60.6511 54.6748C60.7079 54.8374 60.7804 54.853 61.4501 54.853C61.7811 54.853 62.0847 54.8413 62.1238 54.8256C62.2942 54.761 62.2883 54.8217 62.2883 52.4109C62.2883 51.0029 62.2766 50.1177 62.257 49.9747C62.1101 48.9074 61.5344 48.1123 60.608 47.6893C60.1792 47.4954 59.5818 47.3348 58.9924 47.2604C58.7789 47.233 58.4049 47.2212 58.0269 47.2251V47.2251ZM44.001 47.3798L43.9148 47.466L43.8267 47.5522L43.8286 51.0929C43.8286 54.8961 43.8228 54.7277 43.9775 54.8119C44.0715 54.8648 45.225 54.8707 45.3366 54.8197C45.4933 54.7473 45.4972 54.7199 45.4972 53.4782V52.3346H47.2793L48.4034 53.2491C50.166 54.6846 50.1934 54.7062 50.3324 54.7747C50.4597 54.8374 50.5028 54.8393 51.3645 54.8472C52.2379 54.855 52.2673 54.855 52.3241 54.7962C52.3946 54.7257 52.4005 54.6278 52.3417 54.5416C52.3163 54.5064 51.6504 53.9894 50.8612 53.3901C50.0719 52.7928 49.4198 52.2915 49.412 52.2778C49.4022 52.2641 49.4923 52.2445 49.6078 52.2327C50.7084 52.127 51.6191 51.5825 52.0049 50.7953C52.1596 50.478 52.2105 50.2724 52.2301 49.8709C52.2614 49.2031 52.0754 48.6724 51.6543 48.222C51.3645 47.9125 50.8416 47.6207 50.3109 47.4758L50.0249 47.3975L44.001 47.3798ZM1.77826 47.3818L1.73146 47.4523C1.69112 47.513 1.72695 47.6207 1.72695 47.6207C1.74967 47.6736 5.80254 54.7355 5.88088 54.7884C5.97879 54.855 5.98663 54.8569 6.77821 54.8472L7.57781 54.8393L7.6491 54.7669C7.75309 54.6611 11.7689 47.6286 11.7689 47.5522C11.7689 47.5169 11.7474 47.4641 11.72 47.4347C11.6769 47.3877 11.6201 47.3818 11.2087 47.3818H10.7445L10.6601 47.4621C10.6137 47.5071 7.09468 53.7074 7.06491 53.676C7.06491 53.676 3.56587 47.4366 3.52083 47.4171L1.77826 47.3818ZM13.3494 47.3818L13.2769 47.4543L13.2044 47.5248V54.6827L13.2906 54.7688L13.3768 54.853H14.7339L14.8201 54.7688L14.9043 54.6827V47.5365L14.8279 47.4582L14.7516 47.3818H13.3494ZM45.5138 48.1573H47.3292C48.9762 48.1573 49.1642 48.1632 49.3346 48.2102C49.8908 48.363 50.2825 48.7977 50.4098 49.4029C50.4744 49.7084 50.4509 50.1314 50.3491 50.4486C50.1748 50.9989 49.8105 51.3358 49.2269 51.4866C49.0213 51.5394 48.8901 51.5434 47.2529 51.5434H45.4981L45.5138 48.1573ZM37.4903 51.0577C37.9368 51.0518 38.4401 51.089 38.9924 51.1654C39.4624 51.23 40.2242 51.3847 40.2595 51.42C40.2732 51.4337 40.281 51.845 40.2751 52.3365L40.2673 53.2276L40.0773 53.3549C39.672 53.6212 39.1021 53.8876 38.6497 54.0188C38.1327 54.1696 37.7919 54.2146 37.1319 54.2244C36.7931 54.2303 36.4837 54.2283 36.4426 54.2205C35.5006 54.0501 35.0463 53.6388 34.9483 52.8711C34.8876 52.3874 35.0169 51.9997 35.3459 51.6922C35.7826 51.2829 36.5053 51.0714 37.4903 51.0577V51.0577ZM57.9084 51.0577C58.5292 51.0538 59.2421 51.1282 60.0274 51.2809C60.2741 51.3299 60.5091 51.3828 60.5483 51.3965L60.6208 51.4239L60.6129 52.3248L60.6051 53.2276L60.3995 53.3666C60.1625 53.5252 59.6416 53.7896 59.3439 53.9013C59.0286 54.0207 58.5135 54.1461 58.1415 54.195C57.7792 54.242 56.9566 54.2479 56.704 54.2068C56.2653 54.1323 55.8345 53.9208 55.623 53.6721C55.2293 53.2139 55.1667 52.3796 55.4918 51.9076C55.8717 51.3554 56.7236 51.0655 57.9084 51.0577Z" fill="white"/>
<path d="M31.9922 8.98462L31.8747 9.06707C31.3909 9.40195 30.2179 10.5026 29.5481 11.2493C28.8765 11.9988 28.255 12.7917 27.6876 13.6228C27.5408 13.8402 27.4037 14.0263 27.3841 14.0369C27.3645 14.0472 27.1177 14.0118 26.8357 13.9581C25.081 13.6238 23.1696 13.4914 21.5755 13.5945C20.753 13.6477 20.4279 13.6951 20.3887 13.7676C20.3417 13.8586 20.2693 14.6103 20.2438 15.3272C20.187 16.8221 20.3006 18.3817 20.5807 19.939C20.6394 20.2602 20.6943 20.5696 20.7021 20.6264C20.7178 20.7282 20.7178 20.7302 20.3711 20.9633C18.9865 21.8974 17.6137 23.0724 16.5346 24.2514C16.2037 24.6117 15.7395 25.1777 15.6945 25.2756C15.6671 25.3304 15.6906 25.3716 15.8394 25.5694C16.8362 26.8736 18.6752 28.5441 20.3359 29.6526C20.5415 29.7897 20.7138 29.915 20.7217 29.9307C20.7275 29.9464 20.6884 30.1911 20.6355 30.4732C20.3378 32.0399 20.2242 33.3814 20.2497 34.9951C20.2634 35.843 20.3202 36.6871 20.375 36.8653C20.3868 36.9006 20.4573 36.9201 20.6453 36.9456C22.3354 37.1689 24.8029 37.0533 26.8201 36.6558C27.0629 36.6068 27.294 36.5696 27.3332 36.5696C27.3958 36.5696 27.4487 36.6303 27.6563 36.9417C28.1381 37.6643 28.892 38.6337 29.5148 39.3368C30.2982 40.222 31.8237 41.6379 31.9922 41.6379C32.0176 41.6379 32.1508 41.5498 32.2879 41.442C32.705 41.113 33.1554 40.7018 33.739 40.1084C34.7358 39.0998 35.5838 38.0619 36.3554 36.9104C36.4729 36.7361 36.5885 36.5872 36.612 36.5774C36.6355 36.5696 36.8646 36.6029 37.1212 36.6518C38.7251 36.9652 40.5287 37.1081 42.0563 37.0416C42.9493 37.0024 43.5074 36.9417 43.5564 36.8751C43.6367 36.7694 43.715 35.6883 43.715 34.6641C43.715 33.2051 43.5858 31.8342 43.3194 30.479C43.2646 30.2009 43.2254 29.9561 43.2333 29.9366C43.2411 29.917 43.388 29.8093 43.5603 29.6957C44.6394 28.9867 45.7635 28.0702 46.7583 27.0891C47.5437 26.3155 48.3153 25.4382 48.3153 25.3207C48.3153 25.2227 47.6455 24.4374 47.0149 23.797C46.0455 22.81 44.7941 21.7721 43.6347 20.9946C43.3449 20.7988 43.245 20.7185 43.245 20.6715C43.245 20.6382 43.2861 20.4129 43.3331 20.1721C43.6347 18.64 43.7816 16.7827 43.715 15.3161C43.6759 14.4389 43.6151 13.833 43.5564 13.7548C43.4722 13.6409 42.1189 13.5502 40.8577 13.5735C39.5652 13.5972 38.5175 13.7012 37.2661 13.9305C36.9606 13.9869 36.6805 14.0333 36.6433 14.0331C36.5944 14.0329 36.5278 13.9562 36.3593 13.7053C35.482 12.3993 34.399 11.1144 33.3043 10.0817C32.895 9.69492 32.3016 9.18927 32.1077 9.06158L31.9922 8.98462ZM31.9961 9.90134C32.1057 9.90134 33.3571 11.0989 33.9721 11.7914C34.7633 12.6817 35.8208 14.0786 35.7973 14.2017C35.7895 14.2366 35.668 14.2838 35.3488 14.3747C35.106 14.4436 34.8886 14.5006 34.8631 14.5012C34.8357 14.5018 34.7789 14.4479 34.7339 14.3811C34.5831 14.1544 34.0093 13.4078 33.7136 13.0534C33.1633 12.3981 32.1097 11.3664 31.9902 11.3664C31.9256 11.3664 31.4673 11.7796 31.0051 12.2537C30.4254 12.8503 29.7028 13.7311 29.272 14.3629C29.1564 14.5329 29.1486 14.5333 28.6531 14.3886C28.1949 14.2546 28.1831 14.2501 28.1831 14.1943C28.1831 14.1399 28.3985 13.8271 28.845 13.2273C29.6695 12.1235 30.6526 11.0501 31.6259 10.1871C31.8041 10.03 31.9706 9.90134 31.9961 9.90134V9.90134ZM31.9902 12.3043C32.0431 12.3043 32.5797 12.837 32.9518 13.2594C33.4081 13.7756 34.0739 14.6422 34.0739 14.7182C34.0739 14.7428 34.0152 14.7824 33.9349 14.8116C33.5471 14.9528 32.6698 15.3071 32.3505 15.4516C32.1508 15.5417 31.9804 15.6147 31.9687 15.6137C31.9589 15.6128 31.8511 15.5652 31.7297 15.5084C31.3968 15.3519 30.6624 15.0489 30.2786 14.9087C30.0906 14.8398 29.93 14.7656 29.9202 14.7438C29.881 14.6394 30.8524 13.4292 31.5789 12.6787C31.7787 12.4729 31.9647 12.3043 31.9902 12.3043V12.3043ZM41.1633 14.275C41.316 14.275 41.4668 14.2769 41.6196 14.2805C42.5557 14.302 42.8749 14.3238 42.9219 14.3711C42.9728 14.4227 43.0159 15.1945 43.0159 16.0698C43.0139 20.3934 41.692 24.6196 39.2969 27.9645L39.0482 28.3131L39.1109 28.8144C39.2107 29.6193 39.2401 30.1911 39.2225 31C39.2049 31.8166 39.1579 32.3708 39.1011 32.4315C39.0365 32.4981 38.304 32.553 37.4149 32.5549C36.5493 32.5588 36.0695 32.5314 35.3939 32.4374C35.1295 32.4002 34.9826 32.3924 34.9474 32.41C34.918 32.4257 34.775 32.5255 34.6301 32.6293C34.1836 32.9505 33.8781 33.1405 33.8056 33.1385C33.7684 33.1385 33.598 33.0739 33.4296 32.9975C32.9929 32.7978 32.8127 32.7038 32.8127 32.6724C32.8127 32.6372 32.8186 32.6332 33.4727 32.2044C33.7625 32.0144 34.1679 31.7324 34.3735 31.5757C34.6007 31.4053 34.775 31.2937 34.8181 31.2937C34.8553 31.2937 35.0492 31.327 35.2489 31.3681C36.0675 31.5346 37.1642 31.6208 37.8595 31.5738C38.1062 31.5561 38.1767 31.5424 38.1904 31.5052C38.2002 31.4798 38.2159 31.2467 38.2257 30.9882C38.2511 30.2734 38.1748 29.4098 38.0103 28.597C37.9691 28.3953 37.9358 28.2054 37.9358 28.1721C37.9358 28.1407 38.0788 27.9214 38.2551 27.6883C39.3008 26.2901 40.1978 24.647 40.799 23.0293C41.4316 21.3314 41.8134 19.6139 41.9584 17.8281C41.9995 17.3142 42.0093 16.1078 41.974 15.6962C41.9544 15.4471 41.9427 15.4052 41.8879 15.3748C41.7978 15.3247 40.1508 15.3063 39.5789 15.3492C37.7243 15.4876 35.903 15.8977 34.0817 16.5863L33.8977 16.6558L33.7743 16.5845C33.7057 16.5451 33.504 16.4302 33.3258 16.3299C32.9361 16.1092 32.848 16.042 32.8871 16.0001C32.9322 15.9551 33.7997 15.6118 34.3442 15.4242C36.5513 14.6653 38.8739 14.2744 41.1633 14.275V14.275ZM22.6898 14.2822C23.3224 14.2818 23.9902 14.2997 24.4034 14.3373C27.2509 14.5964 29.6715 15.2634 32.0313 16.4398C33.0046 16.9251 33.7723 17.391 34.8651 18.1587L34.9963 18.2511L35.2744 18.208C36.1772 18.0699 37.6578 18.0216 38.5136 18.1019C39.011 18.1487 39.0815 18.1628 39.1128 18.22C39.201 18.3852 39.2617 20.0761 39.2049 20.8458C39.1872 21.1043 39.1442 21.541 39.1089 21.8171L39.0482 22.3204L39.2225 22.5652C39.5672 23.047 39.8257 23.4504 39.8237 23.5111C39.8237 23.5444 39.7278 23.7794 39.6122 24.034C39.4555 24.3708 39.385 24.4942 39.3478 24.4942C39.3165 24.4942 39.2519 24.4198 39.1755 24.2925C38.9934 23.9831 38.5234 23.2937 38.2374 22.9158C38.0964 22.7278 37.9731 22.5593 37.9613 22.5398C37.9496 22.5202 37.9789 22.3028 38.0279 22.056C38.1473 21.445 38.2061 20.9672 38.2335 20.3855C38.257 19.9096 38.2316 19.1498 38.1924 19.1087C38.1806 19.0969 37.7948 19.0891 37.3327 19.0891C36.4161 19.0891 36.0871 19.1185 35.2666 19.281C35.0276 19.328 34.824 19.3672 34.8103 19.3672C34.7985 19.3672 34.6105 19.232 34.3951 19.0695C31.1187 16.6049 26.9121 15.2142 22.9973 15.3024C22.586 15.3116 22.2042 15.3309 22.1474 15.3445C22.0573 15.3664 22.0436 15.3823 22.0181 15.4994C21.9692 15.7399 21.9829 17.5095 22.0397 18.0772C22.2042 19.7177 22.5665 21.3373 23.0854 22.7513C23.1677 22.9765 23.2558 23.2154 23.2793 23.2839L23.3224 23.4054L23.1148 23.7637C22.9993 23.9615 22.8739 24.1868 22.8328 24.2651C22.7271 24.4746 22.6722 24.459 22.5567 24.1789C21.6754 22.0639 21.1486 19.8137 20.9743 17.4205C20.9351 16.8651 20.9332 15.2452 20.9743 14.7658C20.9958 14.4947 21.0154 14.3907 21.0507 14.3657C21.1212 14.3122 21.8771 14.2826 22.6898 14.2822V14.2822ZM22.9758 15.9966C23.0933 15.996 23.2676 15.9993 23.5378 16.0058C25.3258 16.0479 27.0002 16.3389 28.7412 16.9096C29.1878 17.0563 29.2915 17.1066 29.2583 17.1614C29.2485 17.1767 29.1408 17.2586 29.0174 17.3436L28.7941 17.4985L28.5395 17.4654C27.8835 17.3798 27.5486 17.3612 26.6458 17.36C26.0406 17.3594 25.5412 17.3733 25.3121 17.3976C24.8539 17.446 24.282 17.5429 24.2468 17.5772C24.2095 17.6158 24.1488 17.9242 24.0901 18.3848C24.0157 18.9657 24.0157 21.0083 24.0901 21.5899C24.1606 22.1481 24.1625 22.1383 23.9922 22.3811C23.9119 22.4947 23.8335 22.5907 23.8179 22.5907C23.8022 22.5907 23.7787 22.5672 23.763 22.5378C23.6867 22.3948 23.3596 21.3138 23.2186 20.738C22.8778 19.3613 22.7192 18.1908 22.684 16.8015C22.6663 16.1392 22.6683 16.0947 22.7192 16.0432C22.7525 16.0109 22.7819 15.9976 22.9758 15.9966V15.9966ZM40.6502 16.0258C40.987 16.0262 41.2573 16.0371 41.271 16.0589C41.3003 16.1082 41.2886 17.2558 41.2533 17.7025C41.1319 19.234 40.8538 20.6245 40.3858 22.0658C40.2996 22.3341 40.2095 22.5691 40.188 22.5868C40.1586 22.6103 40.1351 22.6024 40.092 22.5535C40.0587 22.5182 39.9765 22.4066 39.9079 22.3087L39.7865 22.1304L39.8511 21.5899C39.9412 20.8477 39.9491 19.093 39.8668 18.4142C39.8061 17.9191 39.7493 17.615 39.7101 17.5753C39.671 17.5373 39.2636 17.4699 38.7329 17.4133C38.0984 17.3453 36.6394 17.3467 35.9794 17.416C35.0707 17.5108 35.1726 17.5177 34.9376 17.3463C34.8259 17.2643 34.7339 17.1746 34.7339 17.1477C34.7339 17.1111 34.8279 17.0669 35.1021 16.9736C36.5238 16.4923 38.0964 16.1736 39.6279 16.0569C39.9099 16.0356 40.3133 16.0256 40.6502 16.0258ZM30.1591 17.4617C30.259 17.4617 31.1794 17.8968 31.1951 17.9517C31.201 17.9712 31.0776 18.0697 30.919 18.1706C30.4333 18.4796 30.0044 18.7738 29.599 19.0773C29.3699 19.2497 29.1858 19.3672 29.1447 19.3672C29.1075 19.3672 28.8803 19.328 28.6374 19.281C27.9011 19.1361 27.4291 19.091 26.6301 19.091C26.164 19.091 25.8859 19.1028 25.835 19.1243C25.7606 19.1557 25.7567 19.1694 25.7351 19.4749C25.6881 20.1721 25.7743 21.2688 25.9408 22.0874C25.9819 22.2871 26.0152 22.4771 26.0152 22.5084C26.0152 22.5378 25.8957 22.7258 25.7469 22.9216C24.6267 24.4198 23.6984 26.1549 23.058 27.9468C22.4999 29.5135 22.1317 31.2545 22.0005 32.9466C21.9692 33.3559 21.9652 34.8325 21.9966 35.1184L22.0142 35.2927L22.1905 35.3143C22.5018 35.3495 23.5554 35.3632 24.0215 35.3358C25.9329 35.2261 27.8384 34.8227 29.6558 34.1451L30.0886 33.9845L30.5645 34.2548C30.8269 34.4036 31.0502 34.5407 31.0619 34.5583C31.0972 34.6132 31.0247 34.6523 30.5273 34.8501C27.7209 35.9586 24.5993 36.4776 21.6558 36.3287C21.3777 36.315 21.1192 36.2915 21.0801 36.2758C20.9861 36.2406 20.9821 36.1818 20.9567 35.0009C20.9253 33.3911 21.0428 32.0516 21.3581 30.4634C21.9339 27.5532 23.0933 24.8409 24.7305 22.5672L24.9048 22.3263L24.8597 22.011C24.7853 21.5018 24.7559 21.1767 24.7266 20.554C24.6854 19.6668 24.7657 18.2707 24.8617 18.1908C24.9537 18.114 25.6078 18.0686 26.6301 18.068C27.6348 18.0674 27.7758 18.0764 28.7138 18.198L28.9958 18.2346L29.1975 18.0864C29.554 17.8248 30.1141 17.4617 30.1591 17.4617V17.4617ZM32.0019 18.3702C32.0587 18.3702 32.7011 18.7581 33.1946 19.0891C33.6333 19.3848 33.9035 19.5826 34.3461 19.9331C34.6418 20.1662 34.5851 20.1584 35.1432 20.0271C35.625 19.9155 36.4201 19.8078 36.9547 19.7824C37.4717 19.7569 37.5246 19.7608 37.5383 19.8274C37.5422 19.8529 37.5383 20.0859 37.5265 20.3464C37.4991 21.0357 37.4404 21.4431 37.221 22.4614L37.1682 22.7003L37.3757 22.9608C37.6617 23.3211 37.9535 23.7207 38.2061 24.0986C38.5116 24.5569 38.9385 25.2599 38.9385 25.3089C38.9385 25.3637 38.6036 25.9317 38.3001 26.388C37.9985 26.8462 37.7322 27.2125 37.4051 27.6276L37.1427 27.9625L37.2328 28.3464C37.3914 29.0142 37.4815 29.6604 37.5207 30.3909C37.5363 30.6984 37.5324 30.8041 37.503 30.8374C37.4032 30.9588 36.0166 30.8237 35.0472 30.6004L34.5988 30.4986L34.3442 30.7003C33.9495 31.0138 33.5418 31.3104 33.1221 31.5894C32.656 31.8989 32.0568 32.2612 32.0117 32.2592C31.9941 32.2592 31.953 32.2435 31.9197 32.2259C31.3008 31.8891 30.2335 31.1684 29.6401 30.6905C29.5128 30.5867 29.3816 30.5025 29.3503 30.5025C29.319 30.5025 29.1917 30.528 29.0683 30.5593C28.7647 30.6377 28.1165 30.7532 27.762 30.7943C27.3234 30.8472 26.5655 30.8805 26.5067 30.8492C26.4617 30.8257 26.4558 30.7767 26.4558 30.479C26.4558 29.8974 26.5537 29.1356 26.7221 28.3816C26.7692 28.174 26.8064 27.9821 26.8064 27.9547C26.8064 27.9273 26.7065 27.7804 26.5851 27.6276C26.0485 26.9579 25.0477 25.4499 25.0477 25.3148C25.0477 25.2599 25.4394 24.6117 25.7645 24.128C26.0328 23.7285 26.3736 23.2644 26.6908 22.8648L26.8083 22.714L26.7515 22.483C26.5851 21.8289 26.4656 21.0083 26.4362 20.3229C26.4206 19.9723 26.4245 19.8568 26.4538 19.8215C26.5537 19.7021 27.9461 19.8372 28.9116 20.0585L29.3601 20.1623L29.5128 20.0409C29.8732 19.753 30.3902 19.375 30.7877 19.1067C31.3008 18.762 31.9452 18.3702 32.0019 18.3702V18.3702ZM20.8705 21.5057C20.896 21.5057 20.9273 21.5547 20.9469 21.6311C20.9665 21.6996 21.0252 21.9111 21.0801 22.1011C21.1349 22.293 21.1799 22.4595 21.1799 22.4712C21.1799 22.4849 21.0174 22.6103 20.8215 22.7532C20.4162 23.0431 19.8737 23.4719 19.5251 23.7755C19.155 24.0967 18.3775 24.8683 18.1875 25.1052L18.0152 25.3207L18.1542 25.4989C18.3442 25.7417 19.0394 26.4389 19.4507 26.7992C19.8913 27.185 20.5062 27.6707 20.8646 27.9175C21.0213 28.0252 21.1564 28.1407 21.1662 28.1721C21.1858 28.2406 20.9586 29.0631 20.9038 29.118C20.8744 29.1493 20.8215 29.1238 20.6218 28.9907C19.7484 28.4031 18.6595 27.5042 17.8135 26.6778C17.2064 26.0844 16.5797 25.3931 16.5797 25.3167C16.5797 25.1836 17.9701 23.7618 18.7594 23.0881C19.5525 22.4125 20.7608 21.5057 20.8705 21.5057V21.5057ZM43.0942 21.5057C43.1491 21.5077 43.8717 22.0169 44.4083 22.434C45.2406 23.0783 46.2178 23.9674 46.8465 24.6509C47.3478 25.1973 47.4066 25.2678 47.4066 25.3226C47.4066 25.3951 46.9973 25.8494 46.3412 26.5016C45.4874 27.3515 44.6629 28.0467 43.6563 28.7674C43.1823 29.1062 43.0962 29.1591 43.0492 29.1297C43.0218 29.1121 42.8181 28.4266 42.7848 28.2406C42.773 28.1721 42.7926 28.1466 42.9278 28.0506C44.0068 27.283 45.0017 26.4291 45.6342 25.726C45.7948 25.5478 45.9378 25.3814 45.9515 25.3579C45.9848 25.2972 45.8595 25.1444 45.3581 24.6313C44.7099 23.9694 43.9226 23.2996 43.1628 22.765C42.9689 22.6279 42.8024 22.4986 42.7926 22.479C42.7848 22.4575 42.822 22.2852 42.8768 22.0972C42.9317 21.9092 42.9904 21.6996 43.01 21.6311C43.0335 21.5449 43.059 21.5057 43.0942 21.5057V21.5057ZM21.3816 23.2526C21.4384 23.2487 21.4678 23.3192 21.5305 23.4994C21.646 23.8264 21.9319 24.5334 22.1023 24.9094C22.1924 25.1072 22.2649 25.2952 22.2649 25.3265C22.2649 25.3598 22.1728 25.5909 22.0632 25.8416C21.8908 26.2293 21.7909 26.48 21.4894 27.279C21.4659 27.3378 21.4286 27.3848 21.3954 27.3887C21.364 27.3926 21.1936 27.2849 20.99 27.1322C20.1851 26.527 18.9826 25.4382 18.9826 25.3148C18.9826 25.1777 20.5082 23.8323 21.2328 23.3309C21.3013 23.2839 21.3464 23.2546 21.3816 23.2526ZM42.5674 23.2526C42.6164 23.2448 42.6849 23.2898 42.8103 23.3838C43.7287 24.0575 45.0036 25.1816 45.0036 25.3148C45.0036 25.4362 43.8599 26.4683 43.0551 27.0734C42.6027 27.4122 42.5615 27.4377 42.5204 27.3867C42.5028 27.3672 42.4284 27.1811 42.352 26.9716C42.2756 26.762 42.1033 26.3331 41.9662 26.0178C41.8291 25.7045 41.7096 25.4068 41.7038 25.3598C41.692 25.2952 41.7351 25.1699 41.8624 24.8898C42.0191 24.5451 42.2972 23.8558 42.448 23.4406C42.491 23.3211 42.5185 23.2604 42.5674 23.2526V23.2526ZM24.6384 26.1353C24.6678 26.1353 24.7344 26.2098 24.801 26.3194C25.0223 26.6798 25.4257 27.2712 25.7351 27.6844L26.0504 28.1074L25.9603 28.5676C25.7958 29.4078 25.7684 29.7055 25.7684 30.6239C25.7665 31.278 25.7743 31.4739 25.8037 31.5033C25.833 31.5326 26.0348 31.5424 26.6986 31.5424C27.6308 31.5424 27.9128 31.515 28.7608 31.3466L29.2073 31.2604L29.6186 31.5679C31.0639 32.6489 32.7618 33.5635 34.4871 34.1882C36.0049 34.7405 37.6264 35.1047 39.2891 35.2673C39.8472 35.3221 41.4041 35.3417 41.7566 35.2986C41.9349 35.2771 41.9525 35.2692 41.9701 35.1968C42.0093 35.0303 42.023 33.6164 41.9877 33.1248C41.8996 31.8362 41.6901 30.5691 41.3669 29.3745C41.2338 28.8771 40.9204 27.9116 40.7696 27.5238C40.7128 27.3809 40.6678 27.2477 40.6678 27.2262C40.6678 27.1792 41.1887 26.2607 41.2298 26.2352C41.2788 26.2039 41.3101 26.2626 41.4923 26.7111C42.3226 28.7792 42.8338 31.0842 42.9826 33.4479C43.0394 34.3605 43.0022 36.1799 42.9238 36.2582C42.8533 36.3287 41.1417 36.3777 40.3153 36.3326C38.8328 36.2523 37.4208 36.0389 35.9931 35.6746C33.5706 35.0597 31.4027 34.0766 29.4169 32.692L28.9958 32.3963L28.4651 32.4609C27.4624 32.5823 26.6262 32.6097 25.7665 32.553C25.2357 32.5177 24.9048 32.4746 24.8558 32.4355C24.7657 32.3591 24.6874 30.9393 24.7266 30.0639C24.754 29.4783 24.8147 28.8477 24.8754 28.4971L24.9067 28.3229L24.7814 28.1466C24.3525 27.5297 24.139 27.2046 24.139 27.1596C24.139 27.1322 24.2409 26.8893 24.3643 26.623C24.5268 26.2705 24.6032 26.1353 24.6384 26.1353V26.1353ZM40.1586 28.0467H40.1645C40.2193 28.0565 40.28 28.2151 40.4817 28.8614C40.9817 30.4667 41.2578 32.1334 41.3023 33.8142C41.3199 34.4702 41.316 34.5368 41.271 34.5838C41.2259 34.6269 41.1613 34.6328 40.7598 34.6288C40.5072 34.6249 40.2291 34.619 40.139 34.6132C38.494 34.5211 36.8705 34.2274 35.3919 33.7495C34.8494 33.5733 34.7182 33.5204 34.7182 33.4773C34.7182 33.4538 34.8142 33.3676 34.9317 33.2854L35.1432 33.1346L35.3332 33.1503C35.4389 33.1601 35.7346 33.1855 35.9931 33.211C36.2516 33.2345 36.6923 33.2619 36.9743 33.2717C38.0259 33.3089 39.6553 33.162 39.7297 33.023C39.7689 32.9485 39.8688 32.22 39.904 31.7481C39.9667 30.9099 39.9353 29.7251 39.8296 28.8829L39.7826 28.5109L39.951 28.2739C40.0548 28.127 40.1234 28.0506 40.1586 28.0467ZM23.814 28.0702C23.8923 28.0702 24.139 28.4423 24.139 28.5579C24.139 28.6088 24.1175 28.8262 24.0901 29.0416C24.0274 29.539 24.0157 31.6619 24.0744 32.128C24.1273 32.549 24.1998 32.9701 24.2311 33.0269C24.2859 33.1326 25.2671 33.2521 26.2933 33.2776C27.0237 33.2952 27.7033 33.2638 28.4122 33.1796L28.8039 33.1326L29.0076 33.2736C29.272 33.4558 29.2955 33.4851 29.223 33.538C29.1936 33.5615 28.99 33.6379 28.7706 33.7084C27.0864 34.2567 25.5197 34.5466 23.7728 34.6328C23.1403 34.6641 22.9503 34.666 22.7917 34.6386L22.6898 34.619L22.6918 33.8279C22.6996 32.1887 23.0032 30.3929 23.5731 28.6479C23.7258 28.1818 23.7728 28.0702 23.814 28.0702V28.0702ZM31.9765 35.0146C31.9922 35.0146 32.2624 35.1263 32.5777 35.2614C32.893 35.3965 33.3356 35.5747 33.5608 35.657C34.0347 35.8313 34.0563 35.8411 34.068 35.8998C34.0778 35.9527 33.5863 36.6127 33.1476 37.1395C32.7461 37.6193 32.0607 38.3263 31.9961 38.3263C31.9706 38.3263 31.81 38.1853 31.6396 38.011C31.3028 37.6702 30.9738 37.304 30.6742 36.9358C30.3236 36.505 29.9124 35.941 29.9124 35.89C29.9124 35.8567 29.9594 35.8235 30.0514 35.7902C30.4685 35.6374 31.1794 35.3515 31.5378 35.1948C31.7611 35.0949 31.9589 35.0146 31.9765 35.0146V35.0146ZM34.8592 36.1192C34.9023 36.1211 35.0394 36.1525 35.1863 36.1936C35.3567 36.2406 35.5642 36.2974 35.6485 36.3209C35.764 36.3542 35.8032 36.3777 35.8032 36.4188C35.8032 36.5343 34.869 37.7838 34.1836 38.5867C33.5138 39.372 32.1273 40.7292 31.9961 40.7292C31.9687 40.7292 31.8081 40.6078 31.6396 40.4589C30.6937 39.6188 29.7361 38.5711 28.9018 37.4626C28.4318 36.834 28.1772 36.458 28.189 36.4031C28.2027 36.3307 29.1055 36.078 29.1682 36.1309C29.1917 36.1505 29.2876 36.2739 29.3777 36.4051C29.6147 36.74 29.9926 37.2296 30.3217 37.6232C30.7936 38.1892 31.9001 39.2937 31.9961 39.2937C32.0431 39.2937 32.4485 38.9294 32.8127 38.5613C33.41 37.9581 33.9975 37.2589 34.5616 36.4776C34.6986 36.2876 34.8259 36.127 34.8455 36.1211C34.8475 36.1192 34.8514 36.1192 34.8592 36.1192V36.1192Z" fill="#B99750"/>
</svg>
